<?xml version="1.0" encoding="UTF-8"?>
<svg xmlns="http://www.w3.org/2000/svg" xmlns:xlink="http://www.w3.org/1999/xlink" width="238px" height="340px" viewBox="0 0 199 284" version="1.1">
<defs>
<radialGradient id="radial0" gradientUnits="userSpaceOnUse" cx="36.260502" cy="19.098101" fx="36.260502" fy="19.098101" r="5.066" >
<stop offset="0" style="stop-color:rgb(85.490196%,14.509804%,11.372549%);stop-opacity:1;"/>
<stop offset="1" style="stop-color:rgb(54.901961%,16.078431%,16.078431%);stop-opacity:1;"/>
</radialGradient>
<linearGradient id="linear0" gradientUnits="userSpaceOnUse" x1="24.517799" y1="25.686001" x2="48.003101" y2="25.686001" >
<stop offset="0" style="stop-color:rgb(93.72549%,88.235294%,1.960784%);stop-opacity:1;"/>
<stop offset="0.501961" style="stop-color:rgb(94.117647%,87.058824%,0%);stop-opacity:1;"/>
<stop offset="1" style="stop-color:rgb(92.156863%,91.372549%,21.960784%);stop-opacity:1;"/>
</linearGradient>
<linearGradient id="linear1" gradientUnits="userSpaceOnUse" x1="27.018101" y1="27.131001" x2="45.4604" y2="27.131001" >
<stop offset="0" style="stop-color:rgb(0%,48.627451%,76.470588%);stop-opacity:1;"/>
<stop offset="0.478431" style="stop-color:rgb(22.745098%,68.235294%,87.843137%);stop-opacity:1;"/>
<stop offset="1" style="stop-color:rgb(0%,48.627451%,76.470588%);stop-opacity:1;"/>
</linearGradient>
<radialGradient id="radial1" gradientUnits="userSpaceOnUse" cx="40.0592" cy="60.485001" fx="40.0592" fy="60.485001" r="31.830299" >
<stop offset="0" style="stop-color:rgb(97.254902%,76.470588%,0%);stop-opacity:1;"/>
<stop offset="1" style="stop-color:rgb(100%,96.078431%,0%);stop-opacity:1;"/>
</radialGradient>
<radialGradient id="radial2" gradientUnits="userSpaceOnUse" cx="38.1618" cy="62.021198" fx="38.1618" fy="62.021198" r="31.830299" >
<stop offset="0" style="stop-color:rgb(97.254902%,76.470588%,0%);stop-opacity:1;"/>
<stop offset="1" style="stop-color:rgb(100%,96.078431%,0%);stop-opacity:1;"/>
</radialGradient>
<radialGradient id="radial3" gradientUnits="userSpaceOnUse" cx="36.2644" cy="63.5574" fx="36.2644" fy="63.5574" r="31.830299" >
<stop offset="0" style="stop-color:rgb(97.254902%,76.470588%,0%);stop-opacity:1;"/>
<stop offset="1" style="stop-color:rgb(100%,96.078431%,0%);stop-opacity:1;"/>
</radialGradient>
<radialGradient id="radial4" gradientUnits="userSpaceOnUse" cx="34.367001" cy="65.093597" fx="34.367001" fy="65.093597" r="31.830299" >
<stop offset="0" style="stop-color:rgb(97.254902%,76.470588%,0%);stop-opacity:1;"/>
<stop offset="1" style="stop-color:rgb(100%,96.078431%,0%);stop-opacity:1;"/>
</radialGradient>
<linearGradient id="linear2" gradientUnits="userSpaceOnUse" x1="3.1842" y1="96.059502" x2="61.758202" y2="37.4855" >
<stop offset="0" style="stop-color:rgb(100%,96.078431%,0%);stop-opacity:1;"/>
<stop offset="1" style="stop-color:rgb(83.529412%,63.921569%,12.54902%);stop-opacity:1;"/>
</linearGradient>
<radialGradient id="radial5" gradientUnits="userSpaceOnUse" cx="31.1061" cy="68.607002" fx="31.1061" fy="68.607002" r="23.778999" >
<stop offset="0" style="stop-color:rgb(97.254902%,76.470588%,0%);stop-opacity:1;"/>
<stop offset="1" style="stop-color:rgb(100%,96.078431%,0%);stop-opacity:1;"/>
</radialGradient>
<radialGradient id="radial6" gradientUnits="userSpaceOnUse" cx="12.4698" cy="53.480099" fx="12.4698" fy="53.480099" r="8.8967" >
<stop offset="0" style="stop-color:rgb(97.254902%,76.470588%,0%);stop-opacity:1;"/>
<stop offset="1" style="stop-color:rgb(100%,96.078431%,0%);stop-opacity:1;"/>
</radialGradient>
<radialGradient id="radial7" gradientUnits="userSpaceOnUse" cx="25.511299" cy="50.4123" fx="25.511299" fy="50.4123" r="12.735" >
<stop offset="0" style="stop-color:rgb(97.254902%,76.470588%,0%);stop-opacity:1;"/>
<stop offset="1" style="stop-color:rgb(100%,96.078431%,0%);stop-opacity:1;"/>
</radialGradient>
<radialGradient id="radial8" gradientUnits="userSpaceOnUse" cx="16.014601" cy="37.030998" fx="16.014601" fy="37.030998" r="5.4772" >
<stop offset="0" style="stop-color:rgb(97.254902%,76.470588%,0%);stop-opacity:1;"/>
<stop offset="1" style="stop-color:rgb(100%,96.078431%,0%);stop-opacity:1;"/>
</radialGradient>
<radialGradient id="radial9" gradientUnits="userSpaceOnUse" cx="17.241899" cy="38.653702" fx="17.241899" fy="38.653702" r="5.3798" >
<stop offset="0" style="stop-color:rgb(97.254902%,76.470588%,0%);stop-opacity:1;"/>
<stop offset="1" style="stop-color:rgb(100%,96.078431%,0%);stop-opacity:1;"/>
</radialGradient>
<radialGradient id="radial10" gradientUnits="userSpaceOnUse" cx="18.194" cy="40.177502" fx="18.194" fy="40.177502" r="5.3804" >
<stop offset="0" style="stop-color:rgb(97.254902%,76.470588%,0%);stop-opacity:1;"/>
<stop offset="1" style="stop-color:rgb(100%,96.078431%,0%);stop-opacity:1;"/>
</radialGradient>
<radialGradient id="radial11" gradientUnits="userSpaceOnUse" cx="53.6278" cy="86.282204" fx="53.6278" fy="86.282204" r="5.5742" >
<stop offset="0" style="stop-color:rgb(97.254902%,76.470588%,0%);stop-opacity:1;"/>
<stop offset="1" style="stop-color:rgb(100%,96.078431%,0%);stop-opacity:1;"/>
</radialGradient>
<radialGradient id="radial12" gradientUnits="userSpaceOnUse" cx="54.876801" cy="87.933502" fx="54.876801" fy="87.933502" r="5.4749" >
<stop offset="0" style="stop-color:rgb(97.254902%,76.470588%,0%);stop-opacity:1;"/>
<stop offset="1" style="stop-color:rgb(100%,96.078431%,0%);stop-opacity:1;"/>
</radialGradient>
<radialGradient id="radial13" gradientUnits="userSpaceOnUse" cx="55.845798" cy="89.484299" fx="55.845798" fy="89.484299" r="5.4756" >
<stop offset="0" style="stop-color:rgb(97.254902%,76.470588%,0%);stop-opacity:1;"/>
<stop offset="1" style="stop-color:rgb(100%,96.078431%,0%);stop-opacity:1;"/>
</radialGradient>
<radialGradient id="radial14" gradientUnits="userSpaceOnUse" cx="33.855701" cy="62.629501" fx="33.855701" fy="62.629501" r="6.4026" >
<stop offset="0" style="stop-color:rgb(97.254902%,76.470588%,0%);stop-opacity:1;"/>
<stop offset="1" style="stop-color:rgb(100%,96.078431%,0%);stop-opacity:1;"/>
</radialGradient>
<radialGradient id="radial15" gradientUnits="userSpaceOnUse" cx="32.2108" cy="60.481201" fx="32.2108" fy="60.481201" r="6.4026" >
<stop offset="0" style="stop-color:rgb(97.254902%,76.470588%,0%);stop-opacity:1;"/>
<stop offset="1" style="stop-color:rgb(100%,96.078431%,0%);stop-opacity:1;"/>
</radialGradient>
<radialGradient id="radial16" gradientUnits="userSpaceOnUse" cx="35.290199" cy="64.526299" fx="35.290199" fy="64.526299" r="6.2887" >
<stop offset="0" style="stop-color:rgb(97.254902%,76.470588%,0%);stop-opacity:1;"/>
<stop offset="1" style="stop-color:rgb(100%,96.078431%,0%);stop-opacity:1;"/>
</radialGradient>
<radialGradient id="radial17" gradientUnits="userSpaceOnUse" cx="36.403198" cy="66.307701" fx="36.403198" fy="66.307701" r="6.2895" >
<stop offset="0" style="stop-color:rgb(97.254902%,76.470588%,0%);stop-opacity:1;"/>
<stop offset="1" style="stop-color:rgb(100%,96.078431%,0%);stop-opacity:1;"/>
</radialGradient>
<radialGradient id="radial18" gradientUnits="userSpaceOnUse" cx="44.800499" cy="75.902" fx="44.800499" fy="75.902" r="13.3586" >
<stop offset="0" style="stop-color:rgb(97.254902%,76.470588%,0%);stop-opacity:1;"/>
<stop offset="1" style="stop-color:rgb(100%,96.078431%,0%);stop-opacity:1;"/>
</radialGradient>
<radialGradient id="radial19" gradientUnits="userSpaceOnUse" cx="27.152399" cy="74.851196" fx="27.152399" fy="74.851196" r="23.063601" >
<stop offset="0" style="stop-color:rgb(97.254902%,76.470588%,0%);stop-opacity:1;"/>
<stop offset="1" style="stop-color:rgb(100%,96.078431%,0%);stop-opacity:1;"/>
</radialGradient>
<radialGradient id="radial20" gradientUnits="userSpaceOnUse" cx="50.699902" cy="47.826199" fx="50.699902" fy="47.826199" r="6.0032" >
<stop offset="0" style="stop-color:rgb(97.254902%,76.470588%,0%);stop-opacity:1;"/>
<stop offset="1" style="stop-color:rgb(100%,96.078431%,0%);stop-opacity:1;"/>
</radialGradient>
<radialGradient id="radial21" gradientUnits="userSpaceOnUse" cx="57.644001" cy="39.593102" fx="57.644001" fy="39.593102" r="7.2961" >
<stop offset="0" style="stop-color:rgb(97.254902%,76.470588%,0%);stop-opacity:1;"/>
<stop offset="1" style="stop-color:rgb(100%,96.078431%,0%);stop-opacity:1;"/>
</radialGradient>
<radialGradient id="radial22" gradientUnits="userSpaceOnUse" cx="64.9328" cy="31.1455" fx="64.9328" fy="31.1455" r="1.3696" >
<stop offset="0" style="stop-color:rgb(97.254902%,76.470588%,0%);stop-opacity:1;"/>
<stop offset="1" style="stop-color:rgb(100%,96.078431%,0%);stop-opacity:1;"/>
</radialGradient>
<radialGradient id="radial23" gradientUnits="userSpaceOnUse" cx="57.249298" cy="53.820202" fx="57.249298" fy="53.820202" r="1.8872" >
<stop offset="0" style="stop-color:rgb(97.254902%,76.470588%,0%);stop-opacity:1;"/>
<stop offset="1" style="stop-color:rgb(100%,96.078431%,0%);stop-opacity:1;"/>
</radialGradient>
<radialGradient id="radial24" gradientUnits="userSpaceOnUse" cx="43.962299" cy="41.752102" fx="43.962299" fy="41.752102" r="1.8872" >
<stop offset="0" style="stop-color:rgb(97.254902%,76.470588%,0%);stop-opacity:1;"/>
<stop offset="1" style="stop-color:rgb(100%,96.078431%,0%);stop-opacity:1;"/>
</radialGradient>
<radialGradient id="radial25" gradientUnits="userSpaceOnUse" cx="47.609402" cy="51.014999" fx="47.609402" fy="51.014999" r="2.8693" >
<stop offset="0" style="stop-color:rgb(97.254902%,76.470588%,0%);stop-opacity:1;"/>
<stop offset="1" style="stop-color:rgb(100%,96.078431%,0%);stop-opacity:1;"/>
</radialGradient>
</defs>
<g id="surface1">
<path style="fill-rule:evenodd;fill:url(#radial0);stroke-width:0.3528;stroke-linecap:butt;stroke-linejoin:miter;stroke:rgb(0%,0%,0%);stroke-opacity:1;stroke-miterlimit:4;" d="M 36.260902 13.921578 C 38.367065 13.921578 42.579391 14.952196 43.924423 15.804173 C 46.882394 15.086863 50.73751 16.654776 52.081168 18.313382 C 51.946528 20.285297 50.60287 20.510658 49.975005 21.898556 C 49.347141 23.287828 47.868842 23.69183 47.151675 24.274473 C 45.762679 23.915818 39.353513 23.019868 36.260902 23.019868 C 33.168291 23.019868 26.759125 23.915818 25.368755 24.274473 C 24.652962 23.69183 23.17329 23.287828 22.545425 21.898556 C 21.918934 20.510658 20.573902 20.285297 20.439262 18.313382 C 21.784294 16.654776 25.638036 15.086863 28.596007 15.804173 C 29.941039 14.952196 34.153365 13.921578 36.260902 13.921578 Z M 36.260902 13.921578 " transform="matrix(2.843218,0,0,2.842653,0,0.000000000000022802)"/>
<path style="fill-rule:evenodd;fill:url(#linear0);stroke-width:0.3528;stroke-linecap:butt;stroke-linejoin:miter;stroke:rgb(0%,0%,0%);stroke-opacity:1;stroke-miterlimit:4;" d="M 26.120269 26.800172 C 26.041958 26.879873 26.002115 26.959574 26.002115 27.043398 C 26.002115 27.939348 30.58539 28.666277 36.23892 28.666277 C 41.89245 28.666277 46.475724 27.939348 46.475724 27.043398 C 46.475724 26.959574 46.442751 26.879873 46.36444 26.800172 C 46.129506 26.508851 46.45649 25.261117 46.703789 24.678475 C 47.353636 24.835129 48.003483 24.229126 46.703789 23.915818 C 44.864159 23.471965 39.845364 22.70656 36.260902 22.70656 C 32.675067 22.70656 27.656271 23.471965 25.818015 23.915818 C 24.518321 24.229126 25.168168 24.835129 25.818015 24.678475 C 26.06394 25.261117 26.355203 26.508851 26.120269 26.800172 Z M 26.120269 26.800172 " transform="matrix(2.843218,0,0,2.842653,0,0.000000000000022802)"/>
<path style="fill:none;stroke-width:0.3528;stroke-linecap:butt;stroke-linejoin:miter;stroke:rgb(0%,0%,0%);stroke-opacity:1;stroke-miterlimit:4;" d="M 25.818015 24.678475 C 26.511826 24.520447 28.552043 24.005138 30.612868 23.804511 " transform="matrix(2.843218,0,0,2.842653,0,0.000000000000022802)"/>
<path style="fill:none;stroke-width:0.3528;stroke-linecap:butt;stroke-linejoin:miter;stroke:rgb(0%,0%,0%);stroke-opacity:1;stroke-miterlimit:4;" d="M 46.36444 26.800172 C 45.6143 26.021026 41.362131 25.420519 36.23892 25.420519 C 31.115709 25.420519 26.87041 26.021026 26.120269 26.800172 " transform="matrix(2.843218,0,0,2.842653,0,0.000000000000022802)"/>
<path style="fill:none;stroke-width:0.3528;stroke-linecap:butt;stroke-linejoin:miter;stroke:rgb(0%,0%,0%);stroke-opacity:1;stroke-miterlimit:4;" d="M 46.703789 24.678475 C 46.008604 24.520447 43.969761 24.005138 41.907562 23.804511 " transform="matrix(2.843218,0,0,2.842653,0,0.000000000000022802)"/>
<path style="fill-rule:evenodd;fill:rgb(2.352941%,25.490198%,52.549022%);fill-opacity:1;stroke-width:0.3528;stroke-linecap:butt;stroke-linejoin:miter;stroke:rgb(0%,0%,0%);stroke-opacity:1;stroke-miterlimit:4;" d="M 36.237546 10.288309 C 37.078363 10.288309 37.759809 9.606727 37.759809 8.767118 C 37.759809 7.927508 37.078363 7.245927 36.237546 7.245927 C 35.398103 7.245927 34.716657 7.927508 34.716657 8.767118 C 34.716657 9.606727 35.398103 10.288309 36.237546 10.288309 Z M 36.237546 10.288309 " transform="matrix(2.843218,0,0,2.842653,0,0.000000000000022802)"/>
<path style="fill-rule:evenodd;fill:rgb(100%,96.078432%,0%);fill-opacity:1;stroke-width:0.3528;stroke-linecap:butt;stroke-linejoin:miter;stroke:rgb(0%,0%,0%);stroke-opacity:1;stroke-miterlimit:4;" d="M 36.574147 4.744962 L 36.574147 5.551592 L 37.36413 5.551592 L 37.36413 6.223554 L 36.574147 6.223554 L 36.574147 8.497783 L 37.784539 8.497783 C 37.817512 8.666804 37.840868 9.036452 37.750192 9.17112 L 34.724901 9.17112 C 34.635598 9.036452 34.65758 8.666804 34.691927 8.497783 L 35.902319 8.497783 L 35.902319 6.223554 L 35.112336 6.223554 L 35.112336 5.551592 L 35.902319 5.551592 L 35.902319 4.744962 Z M 36.574147 4.744962 " transform="matrix(2.843218,0,0,2.842653,0,0.000000000000022802)"/>
<path style="fill-rule:evenodd;fill:rgb(100%,96.078432%,0%);fill-opacity:1;stroke-width:0.3528;stroke-linecap:butt;stroke-linejoin:miter;stroke:rgb(0%,0%,0%);stroke-opacity:1;stroke-miterlimit:4;" d="M 27.924178 12.486959 C 25.414093 11.277702 22.234927 12.10357 20.708543 14.100219 C 19.184906 16.095494 19.632792 18.358729 20.439262 19.613334 L 20.977824 19.726015 L 21.762312 18.402702 C 20.304621 16.880137 20.703048 14.677364 21.738956 13.786911 C 22.860044 12.823627 25.168168 11.725677 27.678253 13.024254 Z M 27.924178 12.486959 " transform="matrix(2.843218,0,0,2.842653,0,0.000000000000022802)"/>
<path style="fill-rule:evenodd;fill:rgb(100%,96.078432%,0%);fill-opacity:1;stroke-width:0.3528;stroke-linecap:butt;stroke-linejoin:miter;stroke:rgb(0%,0%,0%);stroke-opacity:1;stroke-miterlimit:4;" d="M 44.596252 12.486959 C 47.106337 11.277702 50.286877 12.10357 51.811887 14.100219 C 53.336898 16.095494 52.887638 18.358729 52.081168 19.613334 L 51.54398 19.726015 L 50.759493 18.402702 C 52.215809 16.880137 51.817383 14.677364 50.781475 13.786911 C 49.66176 12.823627 47.353636 11.725677 44.843551 13.024254 Z M 44.596252 12.486959 " transform="matrix(2.843218,0,0,2.842653,0,0.000000000000022802)"/>
<path style="fill-rule:evenodd;fill:rgb(100%,96.078432%,0%);fill-opacity:1;stroke-width:0.3528;stroke-linecap:butt;stroke-linejoin:miter;stroke:rgb(0%,0%,0%);stroke-opacity:1;stroke-miterlimit:4;" d="M 35.185151 11.187007 C 33.168291 9.753762 30.075679 9.97775 28.372064 11.725677 C 26.554417 13.591781 27.789538 15.758826 28.641345 16.430788 L 28.080801 17.260778 L 28.46274 17.663406 C 28.686683 17.372085 29.33653 16.454149 29.33653 16.454149 C 27.87884 15.064877 27.654897 12.958295 29.134569 11.88233 C 30.849176 10.634596 33.235611 10.403738 35.207134 11.993637 Z M 35.185151 11.187007 " transform="matrix(2.843218,0,0,2.842653,0,0.000000000000022802)"/>
<path style="fill-rule:evenodd;fill:rgb(100%,96.078432%,0%);fill-opacity:1;stroke-width:0.3528;stroke-linecap:butt;stroke-linejoin:miter;stroke:rgb(0%,0%,0%);stroke-opacity:1;stroke-miterlimit:4;" d="M 37.336653 11.187007 C 39.353513 9.753762 42.446125 9.97775 44.148366 11.725677 C 45.967388 13.591781 44.730893 15.758826 43.880459 16.430788 L 44.439629 17.260778 L 44.059064 17.663406 C 43.835121 17.372085 43.185274 16.454149 43.185274 16.454149 C 44.64159 15.064877 44.865533 12.958295 43.387235 11.88233 C 41.671255 10.634596 39.286193 10.403738 37.313297 11.993637 Z M 37.336653 11.187007 " transform="matrix(2.843218,0,0,2.842653,0,0.000000000000022802)"/>
<path style="fill-rule:evenodd;fill:rgb(100%,96.078432%,0%);fill-opacity:1;stroke-width:0.3528;stroke-linecap:butt;stroke-linejoin:miter;stroke:rgb(0%,0%,0%);stroke-opacity:1;stroke-miterlimit:4;" d="M 36.260902 17.752726 L 38.367065 15.893493 C 37.60456 15.086863 37.447937 13.675604 37.447937 12.51032 C 37.447937 11.345035 37.447937 10.223724 36.260902 10.223724 C 35.072493 10.223724 35.072493 11.345035 35.072493 12.51032 C 35.072493 13.675604 34.91587 15.086863 34.153365 15.893493 Z M 36.260902 17.752726 " transform="matrix(2.843218,0,0,2.842653,0,0.000000000000022802)"/>
<path style="fill-rule:evenodd;fill:rgb(100%,96.078432%,0%);fill-opacity:1;stroke-width:0.3528;stroke-linecap:butt;stroke-linejoin:miter;stroke:rgb(0%,0%,0%);stroke-opacity:1;stroke-miterlimit:4;" d="M 36.260902 17.126111 L 37.511136 15.592553 C 37.059128 14.928835 36.965704 13.764925 36.965704 12.804389 C 36.965704 11.843854 36.965704 10.920421 36.260902 10.920421 C 35.554726 10.920421 35.554726 11.843854 35.554726 12.804389 C 35.554726 13.764925 35.461302 14.928835 35.009294 15.592553 Z M 36.260902 17.126111 " transform="matrix(2.843218,0,0,2.842653,0,0.000000000000022802)"/>
<path style="fill-rule:evenodd;fill:rgb(100%,100%,100%);fill-opacity:1;stroke-width:0.3528;stroke-linecap:butt;stroke-linejoin:miter;stroke:rgb(0%,0%,0%);stroke-opacity:1;stroke-miterlimit:4;" d="M 36.237546 16.11748 C 35.558848 16.11748 35.558848 15.104727 36.237546 15.104727 C 36.927235 15.104727 36.917618 16.11748 36.237546 16.11748 Z M 36.237546 16.11748 " transform="matrix(2.843218,0,0,2.842653,0,0.000000000000022802)"/>
<path style="fill-rule:evenodd;fill:rgb(100%,100%,100%);fill-opacity:1;stroke-width:0.3528;stroke-linecap:butt;stroke-linejoin:miter;stroke:rgb(0%,0%,0%);stroke-opacity:1;stroke-miterlimit:4;" d="M 36.237546 15.029149 C 35.586325 15.029149 35.586325 14.05762 36.237546 14.05762 C 36.899758 14.05762 36.890141 15.029149 36.237546 15.029149 Z M 36.237546 15.029149 " transform="matrix(2.843218,0,0,2.842653,0,0.000000000000022802)"/>
<path style="fill-rule:evenodd;fill:rgb(100%,100%,100%);fill-opacity:1;stroke-width:0.3528;stroke-linecap:butt;stroke-linejoin:miter;stroke:rgb(0%,0%,0%);stroke-opacity:1;stroke-miterlimit:4;" d="M 36.237546 13.939442 C 35.613803 13.939442 35.613803 13.009139 36.237546 13.009139 C 36.870906 13.009139 36.862663 13.939442 36.237546 13.939442 Z M 36.237546 13.939442 " transform="matrix(2.843218,0,0,2.842653,0,0.000000000000022802)"/>
<path style="fill-rule:evenodd;fill:rgb(100%,100%,100%);fill-opacity:1;stroke-width:0.3528;stroke-linecap:butt;stroke-linejoin:miter;stroke:rgb(0%,0%,0%);stroke-opacity:1;stroke-miterlimit:4;" d="M 36.237546 12.851111 C 35.641281 12.851111 35.641281 11.962031 36.237546 11.962031 C 36.843429 11.962031 36.835185 12.851111 36.237546 12.851111 Z M 36.237546 12.851111 " transform="matrix(2.843218,0,0,2.842653,0,0.000000000000022802)"/>
<path style="fill-rule:evenodd;fill:rgb(100%,100%,100%);fill-opacity:1;stroke-width:0.3528;stroke-linecap:butt;stroke-linejoin:miter;stroke:rgb(0%,0%,0%);stroke-opacity:1;stroke-miterlimit:4;" d="M 36.237546 11.874085 C 35.668758 11.874085 35.668758 11.026231 36.237546 11.026231 C 36.814577 11.026231 36.807708 11.874085 36.237546 11.874085 Z M 36.237546 11.874085 " transform="matrix(2.843218,0,0,2.842653,0,0.000000000000022802)"/>
<path style="fill-rule:evenodd;fill:rgb(100%,96.078432%,0%);fill-opacity:1;stroke-width:0.3528;stroke-linecap:butt;stroke-linejoin:miter;stroke:rgb(0%,0%,0%);stroke-opacity:1;stroke-miterlimit:4;" d="M 36.260902 21.809236 C 37.245976 23.243855 39.262837 22.907187 39.845364 21.989251 C 40.249285 23.243855 42.244164 23.57915 43.341897 22.415239 C 44.148366 23.57915 45.44806 24.028499 46.501828 23.243855 C 47.017034 24.655114 49.190518 23.893831 50.266268 22.056584 C 51.342019 20.217963 51.991866 20.375991 52.507072 20.867939 C 53.045634 18.806704 50.624852 19.165359 49.885703 20.823966 L 48.629973 19.971989 L 48.518689 20.510658 L 47.46492 20.510658 L 48.092785 21.361261 L 47.823504 21.989251 L 49.370497 22.213238 C 48.205444 23.624497 47.039017 23.265842 46.725771 21.898556 C 46.478472 22.526546 45.358757 22.997881 44.798213 22.79588 C 44.081046 22.537539 43.473789 21.663576 43.978005 20.770374 L 45.625291 22.12804 L 45.70635 21.203233 L 46.773857 21.083682 L 45.889076 20.47493 L 46.253155 19.621579 L 44.160731 20.042071 L 45.670629 18.324376 L 44.868281 18.166348 L 44.50695 17.102751 L 43.688115 17.870904 L 42.905002 17.631801 L 43.428451 19.859308 L 41.779791 18.501642 L 41.700106 19.426449 L 40.632599 19.546001 L 41.51738 20.154752 L 41.151927 21.008103 L 43.245725 20.587611 C 43.270455 21.612732 42.216686 22.385008 41.459677 22.302558 C 40.879898 22.240721 40.047324 21.428595 39.823381 20.576618 C 39.621421 21.204607 38.814951 21.921917 38.008482 21.809236 C 37.202012 21.69793 36.395543 20.800605 36.685432 19.743879 L 38.747631 20.723653 L 38.591008 19.743879 L 39.666759 19.342625 L 38.591008 18.941372 L 38.747631 17.961598 L 36.685432 18.941372 L 37.806521 16.767456 L 36.932731 16.812804 L 36.260902 15.804173 L 35.587699 16.812804 L 34.713909 16.767456 L 35.834998 18.941372 L 33.772799 17.961598 L 33.929422 18.941372 L 32.853671 19.342625 L 33.929422 19.743879 L 33.772799 20.723653 L 35.834998 19.743879 C 36.126262 20.800605 35.319792 21.69793 34.511949 21.809236 C 33.705479 21.921917 32.89901 21.204607 32.697049 20.576618 C 32.473106 21.428595 31.640533 22.240721 31.062128 22.302558 C 30.303744 22.385008 29.251349 21.612732 29.274705 20.587611 L 31.368504 21.008103 L 31.003051 20.154752 L 31.887832 19.546001 L 30.821698 19.426449 L 30.740639 18.501642 L 29.091979 19.859308 L 29.615429 17.631801 L 28.832315 17.870904 L 28.013481 17.102751 L 27.653523 18.166348 L 26.849801 18.324376 L 28.361073 20.042071 L 26.267275 19.621579 L 26.632728 20.47493 L 25.747947 21.083682 L 26.81408 21.203233 L 26.89514 22.12804 L 28.5438 20.770374 C 29.048015 21.663576 28.439384 22.537539 27.722217 22.79588 C 27.161673 22.997881 26.041958 22.526546 25.796033 21.898556 C 25.481414 23.265842 24.316361 23.624497 23.151308 22.213238 L 24.696926 21.989251 L 24.427645 21.361261 L 25.05551 20.510658 L 24.003115 20.510658 L 23.890457 19.971989 L 22.636101 20.823966 C 21.895578 19.165359 19.47617 18.806704 20.013358 20.867939 C 20.528564 20.375991 21.178411 20.217963 22.254162 22.056584 C 23.329912 23.893831 25.503396 24.655114 26.019976 23.243855 C 27.072371 24.028499 28.372064 23.57915 29.178534 22.415239 C 30.27764 23.57915 32.271145 23.243855 32.675067 21.989251 C 33.257593 22.907187 35.274454 23.243855 36.260902 21.809236 Z M 36.260902 21.809236 " transform="matrix(2.843218,0,0,2.842653,0,0.000000000000022802)"/>
<path style="fill-rule:evenodd;fill:rgb(0%,53.333336%,36.862746%);fill-opacity:1;stroke-width:0.3528;stroke-linecap:butt;stroke-linejoin:miter;stroke:rgb(0%,0%,0%);stroke-opacity:1;stroke-miterlimit:4;" d="M 30.836811 24.341806 C 29.3434 24.483345 29.401103 25.094844 30.894514 24.953306 C 32.387925 24.813142 32.352204 24.198894 30.836811 24.341806 Z M 30.836811 24.341806 " transform="matrix(2.843218,0,0,2.842653,0,0.000000000000022802)"/>
<path style="fill-rule:evenodd;fill:rgb(0%,53.333336%,36.862746%);fill-opacity:1;stroke-width:0.3528;stroke-linecap:butt;stroke-linejoin:miter;stroke:rgb(0%,0%,0%);stroke-opacity:1;stroke-miterlimit:4;" d="M 41.683619 24.341806 C 43.177031 24.483345 43.119328 25.094844 41.625916 24.953306 C 40.132505 24.813142 40.168226 24.198894 41.683619 24.341806 Z M 41.683619 24.341806 " transform="matrix(2.843218,0,0,2.842653,0,0.000000000000022802)"/>
<path style="fill-rule:evenodd;fill:rgb(85.490197%,14.117648%,16.470589%);fill-opacity:1;stroke-width:0.3528;stroke-linecap:butt;stroke-linejoin:miter;stroke:rgb(0%,0%,0%);stroke-opacity:1;stroke-miterlimit:4;" d="M 28.81995 19.613334 C 27.873345 19.613334 27.873345 21.025967 28.81995 21.025967 C 29.76793 21.025967 29.781668 19.613334 28.81995 19.613334 Z M 28.81995 19.613334 " transform="matrix(2.843218,0,0,2.842653,0,0.000000000000022802)"/>
<path style="fill-rule:evenodd;fill:rgb(85.490197%,14.117648%,16.470589%);fill-opacity:1;stroke-width:0.3528;stroke-linecap:butt;stroke-linejoin:miter;stroke:rgb(0%,0%,0%);stroke-opacity:1;stroke-miterlimit:4;" d="M 36.282884 18.628064 C 35.336279 18.628064 35.336279 20.039323 36.282884 20.039323 C 37.230864 20.039323 37.243229 18.628064 36.282884 18.628064 Z M 36.282884 18.628064 " transform="matrix(2.843218,0,0,2.842653,0,0.000000000000022802)"/>
<path style="fill-rule:evenodd;fill:rgb(85.490197%,14.117648%,16.470589%);fill-opacity:1;stroke-width:0.3528;stroke-linecap:butt;stroke-linejoin:miter;stroke:rgb(0%,0%,0%);stroke-opacity:1;stroke-miterlimit:4;" d="M 21.907943 21.406608 C 21.435327 21.691059 22.163485 22.900316 22.636101 22.615866 C 23.107343 22.331416 22.386055 21.118036 21.907943 21.406608 Z M 21.907943 21.406608 " transform="matrix(2.843218,0,0,2.842653,0,0.000000000000022802)"/>
<path style="fill-rule:evenodd;fill:rgb(85.490197%,14.117648%,16.470589%);fill-opacity:1;stroke-width:0.3528;stroke-linecap:butt;stroke-linejoin:miter;stroke:rgb(0%,0%,0%);stroke-opacity:1;stroke-miterlimit:4;" d="M 43.70048 19.613334 C 44.647086 19.613334 44.647086 21.025967 43.70048 21.025967 C 42.752501 21.025967 42.740136 19.613334 43.70048 19.613334 Z M 43.70048 19.613334 " transform="matrix(2.843218,0,0,2.842653,0,0.000000000000022802)"/>
<path style="fill-rule:evenodd;fill:rgb(85.490197%,14.117648%,16.470589%);fill-opacity:1;stroke-width:0.3528;stroke-linecap:butt;stroke-linejoin:miter;stroke:rgb(0%,0%,0%);stroke-opacity:1;stroke-miterlimit:4;" d="M 50.613861 21.406608 C 51.086477 21.691059 50.356945 22.900316 49.885703 22.615866 C 49.413087 22.331416 50.134376 21.118036 50.613861 21.406608 Z M 50.613861 21.406608 " transform="matrix(2.843218,0,0,2.842653,0,0.000000000000022802)"/>
<path style="fill-rule:evenodd;fill:rgb(85.490197%,14.117648%,16.470589%);fill-opacity:1;stroke-width:0.3528;stroke-linecap:butt;stroke-linejoin:miter;stroke:rgb(0%,0%,0%);stroke-opacity:1;stroke-miterlimit:4;" d="M 37.414964 24.722448 C 37.560596 24.722448 37.627916 24.672978 37.627916 24.532814 L 37.627916 24.117819 C 37.627916 23.977655 37.560596 23.926811 37.414964 23.926811 L 35.061502 23.926811 C 34.91587 23.926811 34.84855 23.977655 34.84855 24.117819 L 34.84855 24.532814 C 34.84855 24.672978 34.91587 24.722448 35.061502 24.722448 Z M 37.414964 24.722448 " transform="matrix(2.843218,0,0,2.842653,0,0.000000000000022802)"/>
<path style="fill-rule:evenodd;fill:rgb(85.490197%,14.117648%,16.470589%);fill-opacity:1;stroke-width:0.3528;stroke-linecap:butt;stroke-linejoin:miter;stroke:rgb(0%,0%,0%);stroke-opacity:1;stroke-miterlimit:4;" d="M 25.38799 25.783296 L 26.166981 25.986672 L 26.807211 25.498846 L 26.028219 25.296845 Z M 25.38799 25.783296 " transform="matrix(2.843218,0,0,2.842653,0,0.000000000000022802)"/>
<path style="fill-rule:evenodd;fill:rgb(85.490197%,14.117648%,16.470589%);fill-opacity:1;stroke-width:0.3528;stroke-linecap:butt;stroke-linejoin:miter;stroke:rgb(0%,0%,0%);stroke-opacity:1;stroke-miterlimit:4;" d="M 47.132441 25.783296 L 46.353449 25.986672 L 45.713219 25.498846 L 46.492211 25.296845 Z M 47.132441 25.783296 " transform="matrix(2.843218,0,0,2.842653,0,0.000000000000022802)"/>
<path style="fill-rule:evenodd;fill:rgb(100%,100%,100%);fill-opacity:1;stroke-width:0.3528;stroke-linecap:butt;stroke-linejoin:miter;stroke:rgb(0%,0%,0%);stroke-opacity:1;stroke-miterlimit:4;" d="M 27.902196 11.192504 C 27.333408 11.192504 27.333408 12.038984 27.902196 12.038984 C 28.46961 12.038984 28.477853 11.192504 27.902196 11.192504 Z M 27.902196 11.192504 " transform="matrix(2.843218,0,0,2.842653,0,0.000000000000022802)"/>
<path style="fill-rule:evenodd;fill:rgb(100%,100%,100%);fill-opacity:1;stroke-width:0.3528;stroke-linecap:butt;stroke-linejoin:miter;stroke:rgb(0%,0%,0%);stroke-opacity:1;stroke-miterlimit:4;" d="M 28.708666 10.451834 C 28.139878 10.451834 28.139878 11.299688 28.708666 11.299688 C 29.277453 11.299688 29.284323 10.451834 28.708666 10.451834 Z M 28.708666 10.451834 " transform="matrix(2.843218,0,0,2.842653,0,0.000000000000022802)"/>
<path style="fill-rule:evenodd;fill:rgb(100%,100%,100%);fill-opacity:1;stroke-width:0.3528;stroke-linecap:butt;stroke-linejoin:miter;stroke:rgb(0%,0%,0%);stroke-opacity:1;stroke-miterlimit:4;" d="M 29.671758 9.914538 C 29.10297 9.914538 29.10297 10.761019 29.671758 10.761019 C 30.240545 10.761019 30.248789 9.914538 29.671758 9.914538 Z M 29.671758 9.914538 " transform="matrix(2.843218,0,0,2.842653,0,0.000000000000022802)"/>
<path style="fill-rule:evenodd;fill:rgb(100%,100%,100%);fill-opacity:1;stroke-width:0.3528;stroke-linecap:butt;stroke-linejoin:miter;stroke:rgb(0%,0%,0%);stroke-opacity:1;stroke-miterlimit:4;" d="M 30.792847 9.555884 C 30.224059 9.555884 30.224059 10.403738 30.792847 10.403738 C 31.361634 10.403738 31.368504 9.555884 30.792847 9.555884 Z M 30.792847 9.555884 " transform="matrix(2.843218,0,0,2.842653,0,0.000000000000022802)"/>
<path style="fill-rule:evenodd;fill:rgb(100%,100%,100%);fill-opacity:1;stroke-width:0.3528;stroke-linecap:butt;stroke-linejoin:miter;stroke:rgb(0%,0%,0%);stroke-opacity:1;stroke-miterlimit:4;" d="M 31.868597 9.39923 C 31.299809 9.39923 31.299809 10.24571 31.868597 10.24571 C 32.437385 10.24571 32.444254 9.39923 31.868597 9.39923 Z M 31.868597 9.39923 " transform="matrix(2.843218,0,0,2.842653,0,0.000000000000022802)"/>
<path style="fill-rule:evenodd;fill:rgb(100%,100%,100%);fill-opacity:1;stroke-width:0.3528;stroke-linecap:butt;stroke-linejoin:miter;stroke:rgb(0%,0%,0%);stroke-opacity:1;stroke-miterlimit:4;" d="M 32.96633 9.444577 C 32.397542 9.444577 32.397542 10.291057 32.96633 10.291057 C 33.535118 10.291057 33.543361 9.444577 32.96633 9.444577 Z M 32.96633 9.444577 " transform="matrix(2.843218,0,0,2.842653,0,0.000000000000022802)"/>
<path style="fill-rule:evenodd;fill:rgb(100%,100%,100%);fill-opacity:1;stroke-width:0.3528;stroke-linecap:butt;stroke-linejoin:miter;stroke:rgb(0%,0%,0%);stroke-opacity:1;stroke-miterlimit:4;" d="M 33.952778 9.690551 C 33.38399 9.690551 33.38399 10.537031 33.952778 10.537031 C 34.520192 10.537031 34.528435 9.690551 33.952778 9.690551 Z M 33.952778 9.690551 " transform="matrix(2.843218,0,0,2.842653,0,0.000000000000022802)"/>
<path style="fill-rule:evenodd;fill:rgb(100%,100%,100%);fill-opacity:1;stroke-width:0.3528;stroke-linecap:butt;stroke-linejoin:miter;stroke:rgb(0%,0%,0%);stroke-opacity:1;stroke-miterlimit:4;" d="M 34.892514 10.071192 C 34.325101 10.071192 34.325101 10.919047 34.892514 10.919047 C 35.461302 10.919047 35.469545 10.071192 34.892514 10.071192 Z M 34.892514 10.071192 " transform="matrix(2.843218,0,0,2.842653,0,0.000000000000022802)"/>
<path style="fill-rule:evenodd;fill:rgb(100%,100%,100%);fill-opacity:1;stroke-width:0.3528;stroke-linecap:butt;stroke-linejoin:miter;stroke:rgb(0%,0%,0%);stroke-opacity:1;stroke-miterlimit:4;" d="M 27.341652 12.11044 C 26.772864 12.11044 26.772864 12.958295 27.341652 12.958295 C 27.910439 12.958295 27.918683 12.11044 27.341652 12.11044 Z M 27.341652 12.11044 " transform="matrix(2.843218,0,0,2.842653,0,0.000000000000022802)"/>
<path style="fill-rule:evenodd;fill:rgb(100%,100%,100%);fill-opacity:1;stroke-width:0.3528;stroke-linecap:butt;stroke-linejoin:miter;stroke:rgb(0%,0%,0%);stroke-opacity:1;stroke-miterlimit:4;" d="M 27.00505 13.164418 C 26.436263 13.164418 26.436263 14.010899 27.00505 14.010899 C 27.573838 14.010899 27.582081 13.164418 27.00505 13.164418 Z M 27.00505 13.164418 " transform="matrix(2.843218,0,0,2.842653,0,0.000000000000022802)"/>
<path style="fill-rule:evenodd;fill:rgb(100%,100%,100%);fill-opacity:1;stroke-width:0.3528;stroke-linecap:butt;stroke-linejoin:miter;stroke:rgb(0%,0%,0%);stroke-opacity:1;stroke-miterlimit:4;" d="M 27.094353 14.240383 C 26.526939 14.240383 26.526939 15.086863 27.094353 15.086863 C 27.66314 15.086863 27.671384 14.240383 27.094353 14.240383 Z M 27.094353 14.240383 " transform="matrix(2.843218,0,0,2.842653,0,0.000000000000022802)"/>
<path style="fill-rule:evenodd;fill:rgb(100%,100%,100%);fill-opacity:1;stroke-width:0.3528;stroke-linecap:butt;stroke-linejoin:miter;stroke:rgb(0%,0%,0%);stroke-opacity:1;stroke-miterlimit:4;" d="M 27.498274 15.225653 C 26.929487 15.225653 26.929487 16.072133 27.498274 16.072133 C 28.067062 16.072133 28.075305 15.225653 27.498274 15.225653 Z M 27.498274 15.225653 " transform="matrix(2.843218,0,0,2.842653,0,0.000000000000022802)"/>
<path style="fill-rule:evenodd;fill:rgb(100%,100%,100%);fill-opacity:1;stroke-width:0.3528;stroke-linecap:butt;stroke-linejoin:miter;stroke:rgb(0%,0%,0%);stroke-opacity:1;stroke-miterlimit:4;" d="M 28.080801 16.07763 C 27.512013 16.07763 27.512013 16.92411 28.080801 16.92411 C 28.649589 16.92411 28.657832 16.07763 28.080801 16.07763 Z M 28.080801 16.07763 " transform="matrix(2.843218,0,0,2.842653,0,0.000000000000022802)"/>
<path style="fill-rule:evenodd;fill:rgb(100%,100%,100%);fill-opacity:1;stroke-width:0.3528;stroke-linecap:butt;stroke-linejoin:miter;stroke:rgb(0%,0%,0%);stroke-opacity:1;stroke-miterlimit:4;" d="M 26.759125 11.21449 C 26.190337 11.21449 26.190337 12.060971 26.759125 12.060971 C 27.326539 12.060971 27.334782 11.21449 26.759125 11.21449 Z M 26.759125 11.21449 " transform="matrix(2.843218,0,0,2.842653,0,0.000000000000022802)"/>
<path style="fill-rule:evenodd;fill:rgb(100%,100%,100%);fill-opacity:1;stroke-width:0.3528;stroke-linecap:butt;stroke-linejoin:miter;stroke:rgb(0%,0%,0%);stroke-opacity:1;stroke-miterlimit:4;" d="M 25.705357 11.079823 C 25.136569 11.079823 25.136569 11.927678 25.705357 11.927678 C 26.274144 11.927678 26.282388 11.079823 25.705357 11.079823 Z M 25.705357 11.079823 " transform="matrix(2.843218,0,0,2.842653,0,0.000000000000022802)"/>
<path style="fill-rule:evenodd;fill:rgb(100%,100%,100%);fill-opacity:1;stroke-width:0.3528;stroke-linecap:butt;stroke-linejoin:miter;stroke:rgb(0%,0%,0%);stroke-opacity:1;stroke-miterlimit:4;" d="M 24.652962 11.12517 C 24.084174 11.12517 24.084174 11.971651 24.652962 11.971651 C 25.22175 11.971651 25.228619 11.12517 24.652962 11.12517 Z M 24.652962 11.12517 " transform="matrix(2.843218,0,0,2.842653,0,0.000000000000022802)"/>
<path style="fill-rule:evenodd;fill:rgb(100%,100%,100%);fill-opacity:1;stroke-width:0.3528;stroke-linecap:butt;stroke-linejoin:miter;stroke:rgb(0%,0%,0%);stroke-opacity:1;stroke-miterlimit:4;" d="M 23.531873 11.349158 C 22.963086 11.349158 22.963086 12.195638 23.531873 12.195638 C 24.100661 12.195638 24.108904 11.349158 23.531873 11.349158 Z M 23.531873 11.349158 " transform="matrix(2.843218,0,0,2.842653,0,0.000000000000022802)"/>
<path style="fill-rule:evenodd;fill:rgb(100%,100%,100%);fill-opacity:1;stroke-width:0.3528;stroke-linecap:butt;stroke-linejoin:miter;stroke:rgb(0%,0%,0%);stroke-opacity:1;stroke-miterlimit:4;" d="M 22.501461 11.751786 C 21.932673 11.751786 21.932673 12.59964 22.501461 12.59964 C 23.070248 12.59964 23.077118 11.751786 22.501461 11.751786 Z M 22.501461 11.751786 " transform="matrix(2.843218,0,0,2.842653,0,0.000000000000022802)"/>
<path style="fill-rule:evenodd;fill:rgb(100%,100%,100%);fill-opacity:1;stroke-width:0.3528;stroke-linecap:butt;stroke-linejoin:miter;stroke:rgb(0%,0%,0%);stroke-opacity:1;stroke-miterlimit:4;" d="M 21.536995 12.312441 C 20.969581 12.312441 20.969581 13.158922 21.536995 13.158922 C 22.105782 13.158922 22.114026 12.312441 21.536995 12.312441 Z M 21.536995 12.312441 " transform="matrix(2.843218,0,0,2.842653,0,0.000000000000022802)"/>
<path style="fill-rule:evenodd;fill:rgb(100%,100%,100%);fill-opacity:1;stroke-width:0.3528;stroke-linecap:butt;stroke-linejoin:miter;stroke:rgb(0%,0%,0%);stroke-opacity:1;stroke-miterlimit:4;" d="M 20.708543 13.029751 C 20.139755 13.029751 20.139755 13.876231 20.708543 13.876231 C 21.277331 13.876231 21.285574 13.029751 20.708543 13.029751 Z M 20.708543 13.029751 " transform="matrix(2.843218,0,0,2.842653,0,0.000000000000022802)"/>
<path style="fill-rule:evenodd;fill:rgb(100%,100%,100%);fill-opacity:1;stroke-width:0.3528;stroke-linecap:butt;stroke-linejoin:miter;stroke:rgb(0%,0%,0%);stroke-opacity:1;stroke-miterlimit:4;" d="M 20.013358 13.903714 C 19.44457 13.903714 19.44457 14.750195 20.013358 14.750195 C 20.582146 14.750195 20.590389 13.903714 20.013358 13.903714 Z M 20.013358 13.903714 " transform="matrix(2.843218,0,0,2.842653,0,0.000000000000022802)"/>
<path style="fill-rule:evenodd;fill:rgb(100%,100%,100%);fill-opacity:1;stroke-width:0.3528;stroke-linecap:butt;stroke-linejoin:miter;stroke:rgb(0%,0%,0%);stroke-opacity:1;stroke-miterlimit:4;" d="M 19.565472 14.888985 C 18.996684 14.888985 18.996684 15.736839 19.565472 15.736839 C 20.13426 15.736839 20.142503 14.888985 19.565472 14.888985 Z M 19.565472 14.888985 " transform="matrix(2.843218,0,0,2.842653,0,0.000000000000022802)"/>
<path style="fill-rule:evenodd;fill:rgb(100%,100%,100%);fill-opacity:1;stroke-width:0.3528;stroke-linecap:butt;stroke-linejoin:miter;stroke:rgb(0%,0%,0%);stroke-opacity:1;stroke-miterlimit:4;" d="M 19.319547 15.942963 C 18.750759 15.942963 18.750759 16.789443 19.319547 16.789443 C 19.886961 16.789443 19.895204 15.942963 19.319547 15.942963 Z M 19.319547 15.942963 " transform="matrix(2.843218,0,0,2.842653,0,0.000000000000022802)"/>
<path style="fill-rule:evenodd;fill:rgb(100%,100%,100%);fill-opacity:1;stroke-width:0.3528;stroke-linecap:butt;stroke-linejoin:miter;stroke:rgb(0%,0%,0%);stroke-opacity:1;stroke-miterlimit:4;" d="M 19.296191 17.0629 C 18.727403 17.0629 18.727403 17.910754 19.296191 17.910754 C 19.864979 17.910754 19.873222 17.0629 19.296191 17.0629 Z M 19.296191 17.0629 " transform="matrix(2.843218,0,0,2.842653,0,0.000000000000022802)"/>
<path style="fill-rule:evenodd;fill:rgb(100%,100%,100%);fill-opacity:1;stroke-width:0.3528;stroke-linecap:butt;stroke-linejoin:miter;stroke:rgb(0%,0%,0%);stroke-opacity:1;stroke-miterlimit:4;" d="M 19.498152 18.093517 C 18.929364 18.093517 18.929364 18.941372 19.498152 18.941372 C 20.06694 18.941372 20.075183 18.093517 19.498152 18.093517 Z M 19.498152 18.093517 " transform="matrix(2.843218,0,0,2.842653,0,0.000000000000022802)"/>
<path style="fill-rule:evenodd;fill:rgb(100%,100%,100%);fill-opacity:1;stroke-width:0.3528;stroke-linecap:butt;stroke-linejoin:miter;stroke:rgb(0%,0%,0%);stroke-opacity:1;stroke-miterlimit:4;" d="M 19.856735 18.990841 C 19.287948 18.990841 19.287948 19.837322 19.856735 19.837322 C 20.425523 19.837322 20.433766 18.990841 19.856735 18.990841 Z M 19.856735 18.990841 " transform="matrix(2.843218,0,0,2.842653,0,0.000000000000022802)"/>
<path style="fill-rule:evenodd;fill:rgb(100%,100%,100%);fill-opacity:1;stroke-width:0.3528;stroke-linecap:butt;stroke-linejoin:miter;stroke:rgb(0%,0%,0%);stroke-opacity:1;stroke-miterlimit:4;" d="M 44.619608 11.192504 C 45.188396 11.192504 45.188396 12.038984 44.619608 12.038984 C 44.05082 12.038984 44.042577 11.192504 44.619608 11.192504 Z M 44.619608 11.192504 " transform="matrix(2.843218,0,0,2.842653,0,0.000000000000022802)"/>
<path style="fill-rule:evenodd;fill:rgb(100%,100%,100%);fill-opacity:1;stroke-width:0.3528;stroke-linecap:butt;stroke-linejoin:miter;stroke:rgb(0%,0%,0%);stroke-opacity:1;stroke-miterlimit:4;" d="M 43.811765 10.451834 C 44.380552 10.451834 44.380552 11.299688 43.811765 11.299688 C 43.244351 11.299688 43.236108 10.451834 43.811765 10.451834 Z M 43.811765 10.451834 " transform="matrix(2.843218,0,0,2.842653,0,0.000000000000022802)"/>
<path style="fill-rule:evenodd;fill:rgb(100%,100%,100%);fill-opacity:1;stroke-width:0.3528;stroke-linecap:butt;stroke-linejoin:miter;stroke:rgb(0%,0%,0%);stroke-opacity:1;stroke-miterlimit:4;" d="M 42.848673 9.914538 C 43.41746 9.914538 43.41746 10.761019 42.848673 10.761019 C 42.279885 10.761019 42.271642 9.914538 42.848673 9.914538 Z M 42.848673 9.914538 " transform="matrix(2.843218,0,0,2.842653,0,0.000000000000022802)"/>
<path style="fill-rule:evenodd;fill:rgb(100%,100%,100%);fill-opacity:1;stroke-width:0.3528;stroke-linecap:butt;stroke-linejoin:miter;stroke:rgb(0%,0%,0%);stroke-opacity:1;stroke-miterlimit:4;" d="M 41.728958 9.555884 C 42.296371 9.555884 42.296371 10.403738 41.728958 10.403738 C 41.16017 10.403738 41.151927 9.555884 41.728958 9.555884 Z M 41.728958 9.555884 " transform="matrix(2.843218,0,0,2.842653,0,0.000000000000022802)"/>
<path style="fill-rule:evenodd;fill:rgb(100%,100%,100%);fill-opacity:1;stroke-width:0.3528;stroke-linecap:butt;stroke-linejoin:miter;stroke:rgb(0%,0%,0%);stroke-opacity:1;stroke-miterlimit:4;" d="M 40.653207 9.39923 C 41.220621 9.39923 41.220621 10.24571 40.653207 10.24571 C 40.084419 10.24571 40.076176 9.39923 40.653207 9.39923 Z M 40.653207 9.39923 " transform="matrix(2.843218,0,0,2.842653,0,0.000000000000022802)"/>
<path style="fill-rule:evenodd;fill:rgb(100%,100%,100%);fill-opacity:1;stroke-width:0.3528;stroke-linecap:butt;stroke-linejoin:miter;stroke:rgb(0%,0%,0%);stroke-opacity:1;stroke-miterlimit:4;" d="M 39.5541 9.444577 C 40.122888 9.444577 40.122888 10.291057 39.5541 10.291057 C 38.985313 10.291057 38.978443 9.444577 39.5541 9.444577 Z M 39.5541 9.444577 " transform="matrix(2.843218,0,0,2.842653,0,0.000000000000022802)"/>
<path style="fill-rule:evenodd;fill:rgb(100%,100%,100%);fill-opacity:1;stroke-width:0.3528;stroke-linecap:butt;stroke-linejoin:miter;stroke:rgb(0%,0%,0%);stroke-opacity:1;stroke-miterlimit:4;" d="M 38.569026 9.690551 C 39.13644 9.690551 39.13644 10.537031 38.569026 10.537031 C 38.000238 10.537031 37.991995 9.690551 38.569026 9.690551 Z M 38.569026 9.690551 " transform="matrix(2.843218,0,0,2.842653,0,0.000000000000022802)"/>
<path style="fill-rule:evenodd;fill:rgb(100%,100%,100%);fill-opacity:1;stroke-width:0.3528;stroke-linecap:butt;stroke-linejoin:miter;stroke:rgb(0%,0%,0%);stroke-opacity:1;stroke-miterlimit:4;" d="M 37.627916 10.071192 C 38.196704 10.071192 38.196704 10.919047 37.627916 10.919047 C 37.059128 10.919047 37.050885 10.071192 37.627916 10.071192 Z M 37.627916 10.071192 " transform="matrix(2.843218,0,0,2.842653,0,0.000000000000022802)"/>
<path style="fill-rule:evenodd;fill:rgb(100%,100%,100%);fill-opacity:1;stroke-width:0.3528;stroke-linecap:butt;stroke-linejoin:miter;stroke:rgb(0%,0%,0%);stroke-opacity:1;stroke-miterlimit:4;" d="M 45.178779 12.11044 C 45.747566 12.11044 45.747566 12.958295 45.178779 12.958295 C 44.611365 12.958295 44.603122 12.11044 45.178779 12.11044 Z M 45.178779 12.11044 " transform="matrix(2.843218,0,0,2.842653,0,0.000000000000022802)"/>
<path style="fill-rule:evenodd;fill:rgb(100%,100%,100%);fill-opacity:1;stroke-width:0.3528;stroke-linecap:butt;stroke-linejoin:miter;stroke:rgb(0%,0%,0%);stroke-opacity:1;stroke-miterlimit:4;" d="M 45.51538 13.164418 C 46.084168 13.164418 46.084168 14.010899 45.51538 14.010899 C 44.946592 14.010899 44.938349 13.164418 45.51538 13.164418 Z M 45.51538 13.164418 " transform="matrix(2.843218,0,0,2.842653,0,0.000000000000022802)"/>
<path style="fill-rule:evenodd;fill:rgb(100%,100%,100%);fill-opacity:1;stroke-width:0.3528;stroke-linecap:butt;stroke-linejoin:miter;stroke:rgb(0%,0%,0%);stroke-opacity:1;stroke-miterlimit:4;" d="M 45.426078 14.240383 C 45.994865 14.240383 45.994865 15.086863 45.426078 15.086863 C 44.85729 15.086863 44.849047 14.240383 45.426078 14.240383 Z M 45.426078 14.240383 " transform="matrix(2.843218,0,0,2.842653,0,0.000000000000022802)"/>
<path style="fill-rule:evenodd;fill:rgb(100%,100%,100%);fill-opacity:1;stroke-width:0.3528;stroke-linecap:butt;stroke-linejoin:miter;stroke:rgb(0%,0%,0%);stroke-opacity:1;stroke-miterlimit:4;" d="M 45.022156 15.225653 C 45.590944 15.225653 45.590944 16.072133 45.022156 16.072133 C 44.453368 16.072133 44.445125 15.225653 45.022156 15.225653 Z M 45.022156 15.225653 " transform="matrix(2.843218,0,0,2.842653,0,0.000000000000022802)"/>
<path style="fill-rule:evenodd;fill:rgb(100%,100%,100%);fill-opacity:1;stroke-width:0.3528;stroke-linecap:butt;stroke-linejoin:miter;stroke:rgb(0%,0%,0%);stroke-opacity:1;stroke-miterlimit:4;" d="M 44.439629 16.07763 C 45.008417 16.07763 45.008417 16.92411 44.439629 16.92411 C 43.870842 16.92411 43.863972 16.07763 44.439629 16.07763 Z M 44.439629 16.07763 " transform="matrix(2.843218,0,0,2.842653,0,0.000000000000022802)"/>
<path style="fill-rule:evenodd;fill:rgb(100%,100%,100%);fill-opacity:1;stroke-width:0.3528;stroke-linecap:butt;stroke-linejoin:miter;stroke:rgb(0%,0%,0%);stroke-opacity:1;stroke-miterlimit:4;" d="M 45.762679 11.21449 C 46.330093 11.21449 46.330093 12.060971 45.762679 12.060971 C 45.193891 12.060971 45.185648 11.21449 45.762679 11.21449 Z M 45.762679 11.21449 " transform="matrix(2.843218,0,0,2.842653,0,0.000000000000022802)"/>
<path style="fill-rule:evenodd;fill:rgb(100%,100%,100%);fill-opacity:1;stroke-width:0.3528;stroke-linecap:butt;stroke-linejoin:miter;stroke:rgb(0%,0%,0%);stroke-opacity:1;stroke-miterlimit:4;" d="M 46.815074 11.079823 C 47.383861 11.079823 47.383861 11.927678 46.815074 11.927678 C 46.246286 11.927678 46.238043 11.079823 46.815074 11.079823 Z M 46.815074 11.079823 " transform="matrix(2.843218,0,0,2.842653,0,0.000000000000022802)"/>
<path style="fill-rule:evenodd;fill:rgb(100%,100%,100%);fill-opacity:1;stroke-width:0.3528;stroke-linecap:butt;stroke-linejoin:miter;stroke:rgb(0%,0%,0%);stroke-opacity:1;stroke-miterlimit:4;" d="M 47.868842 11.12517 C 48.43763 11.12517 48.43763 11.971651 47.868842 11.971651 C 47.300054 11.971651 47.291811 11.12517 47.868842 11.12517 Z M 47.868842 11.12517 " transform="matrix(2.843218,0,0,2.842653,0,0.000000000000022802)"/>
<path style="fill-rule:evenodd;fill:rgb(100%,100%,100%);fill-opacity:1;stroke-width:0.3528;stroke-linecap:butt;stroke-linejoin:miter;stroke:rgb(0%,0%,0%);stroke-opacity:1;stroke-miterlimit:4;" d="M 48.988557 11.349158 C 49.557345 11.349158 49.557345 12.195638 48.988557 12.195638 C 48.419769 12.195638 48.4129 11.349158 48.988557 11.349158 Z M 48.988557 11.349158 " transform="matrix(2.843218,0,0,2.842653,0,0.000000000000022802)"/>
<path style="fill-rule:evenodd;fill:rgb(100%,100%,100%);fill-opacity:1;stroke-width:0.3528;stroke-linecap:butt;stroke-linejoin:miter;stroke:rgb(0%,0%,0%);stroke-opacity:1;stroke-miterlimit:4;" d="M 50.020343 11.751786 C 50.587757 11.751786 50.587757 12.59964 50.020343 12.59964 C 49.451556 12.59964 49.443312 11.751786 50.020343 11.751786 Z M 50.020343 11.751786 " transform="matrix(2.843218,0,0,2.842653,0,0.000000000000022802)"/>
<path style="fill-rule:evenodd;fill:rgb(100%,100%,100%);fill-opacity:1;stroke-width:0.3528;stroke-linecap:butt;stroke-linejoin:miter;stroke:rgb(0%,0%,0%);stroke-opacity:1;stroke-miterlimit:4;" d="M 50.983436 12.312441 C 51.552223 12.312441 51.552223 13.158922 50.983436 13.158922 C 50.414648 13.158922 50.406405 12.312441 50.983436 12.312441 Z M 50.983436 12.312441 " transform="matrix(2.843218,0,0,2.842653,0,0.000000000000022802)"/>
<path style="fill-rule:evenodd;fill:rgb(100%,100%,100%);fill-opacity:1;stroke-width:0.3528;stroke-linecap:butt;stroke-linejoin:miter;stroke:rgb(0%,0%,0%);stroke-opacity:1;stroke-miterlimit:4;" d="M 51.811887 13.029751 C 52.380675 13.029751 52.380675 13.876231 51.811887 13.876231 C 51.244473 13.876231 51.23623 13.029751 51.811887 13.029751 Z M 51.811887 13.029751 " transform="matrix(2.843218,0,0,2.842653,0,0.000000000000022802)"/>
<path style="fill-rule:evenodd;fill:rgb(100%,100%,100%);fill-opacity:1;stroke-width:0.3528;stroke-linecap:butt;stroke-linejoin:miter;stroke:rgb(0%,0%,0%);stroke-opacity:1;stroke-miterlimit:4;" d="M 52.507072 13.903714 C 53.07586 13.903714 53.07586 14.750195 52.507072 14.750195 C 51.938284 14.750195 51.930041 13.903714 52.507072 13.903714 Z M 52.507072 13.903714 " transform="matrix(2.843218,0,0,2.842653,0,0.000000000000022802)"/>
<path style="fill-rule:evenodd;fill:rgb(100%,100%,100%);fill-opacity:1;stroke-width:0.3528;stroke-linecap:butt;stroke-linejoin:miter;stroke:rgb(0%,0%,0%);stroke-opacity:1;stroke-miterlimit:4;" d="M 52.954958 14.888985 C 53.523746 14.888985 53.523746 15.736839 52.954958 15.736839 C 52.38617 15.736839 52.379301 14.888985 52.954958 14.888985 Z M 52.954958 14.888985 " transform="matrix(2.843218,0,0,2.842653,0,0.000000000000022802)"/>
<path style="fill-rule:evenodd;fill:rgb(100%,100%,100%);fill-opacity:1;stroke-width:0.3528;stroke-linecap:butt;stroke-linejoin:miter;stroke:rgb(0%,0%,0%);stroke-opacity:1;stroke-miterlimit:4;" d="M 53.202257 15.942963 C 53.769671 15.942963 53.769671 16.789443 53.202257 16.789443 C 52.633469 16.789443 52.625226 15.942963 53.202257 15.942963 Z M 53.202257 15.942963 " transform="matrix(2.843218,0,0,2.842653,0,0.000000000000022802)"/>
<path style="fill-rule:evenodd;fill:rgb(100%,100%,100%);fill-opacity:1;stroke-width:0.3528;stroke-linecap:butt;stroke-linejoin:miter;stroke:rgb(0%,0%,0%);stroke-opacity:1;stroke-miterlimit:4;" d="M 53.224239 17.0629 C 53.793027 17.0629 53.793027 17.910754 53.224239 17.910754 C 52.655452 17.910754 52.648582 17.0629 53.224239 17.0629 Z M 53.224239 17.0629 " transform="matrix(2.843218,0,0,2.842653,0,0.000000000000022802)"/>
<path style="fill-rule:evenodd;fill:rgb(100%,100%,100%);fill-opacity:1;stroke-width:0.3528;stroke-linecap:butt;stroke-linejoin:miter;stroke:rgb(0%,0%,0%);stroke-opacity:1;stroke-miterlimit:4;" d="M 53.022278 18.093517 C 53.591066 18.093517 53.591066 18.941372 53.022278 18.941372 C 52.454865 18.941372 52.446621 18.093517 53.022278 18.093517 Z M 53.022278 18.093517 " transform="matrix(2.843218,0,0,2.842653,0,0.000000000000022802)"/>
<path style="fill-rule:evenodd;fill:rgb(100%,100%,100%);fill-opacity:1;stroke-width:0.3528;stroke-linecap:butt;stroke-linejoin:miter;stroke:rgb(0%,0%,0%);stroke-opacity:1;stroke-miterlimit:4;" d="M 52.663695 18.990841 C 53.232483 18.990841 53.232483 19.837322 52.663695 19.837322 C 52.096281 19.837322 52.088038 18.990841 52.663695 18.990841 Z M 52.663695 18.990841 " transform="matrix(2.843218,0,0,2.842653,0,0.000000000000022802)"/>
<path style="fill-rule:evenodd;fill:rgb(100%,100%,100%);fill-opacity:1;stroke-width:0.3528;stroke-linecap:butt;stroke-linejoin:miter;stroke:rgb(0%,0%,0%);stroke-opacity:1;stroke-miterlimit:4;" d="M 25.818015 21.450581 C 25.229993 21.450581 25.229993 22.324545 25.818015 22.324545 C 26.404663 22.324545 26.412907 21.450581 25.818015 21.450581 Z M 25.818015 21.450581 " transform="matrix(2.843218,0,0,2.842653,0,0.000000000000022802)"/>
<path style="fill-rule:evenodd;fill:rgb(100%,100%,100%);fill-opacity:1;stroke-width:0.3528;stroke-linecap:butt;stroke-linejoin:miter;stroke:rgb(0%,0%,0%);stroke-opacity:1;stroke-miterlimit:4;" d="M 32.675067 20.083296 C 32.088418 20.083296 32.088418 20.958633 32.675067 20.958633 C 33.261715 20.958633 33.269958 20.083296 32.675067 20.083296 Z M 32.675067 20.083296 " transform="matrix(2.843218,0,0,2.842653,0,0.000000000000022802)"/>
<path style="fill-rule:evenodd;fill:rgb(100%,100%,100%);fill-opacity:1;stroke-width:0.3528;stroke-linecap:butt;stroke-linejoin:miter;stroke:rgb(0%,0%,0%);stroke-opacity:1;stroke-miterlimit:4;" d="M 46.703789 21.450581 C 47.290437 21.450581 47.290437 22.324545 46.703789 22.324545 C 46.115767 22.324545 46.107524 21.450581 46.703789 21.450581 Z M 46.703789 21.450581 " transform="matrix(2.843218,0,0,2.842653,0,0.000000000000022802)"/>
<path style="fill-rule:evenodd;fill:rgb(100%,100%,100%);fill-opacity:1;stroke-width:0.3528;stroke-linecap:butt;stroke-linejoin:miter;stroke:rgb(0%,0%,0%);stroke-opacity:1;stroke-miterlimit:4;" d="M 39.845364 20.083296 C 40.433386 20.083296 40.433386 20.958633 39.845364 20.958633 C 39.258715 20.958633 39.250472 20.083296 39.845364 20.083296 Z M 39.845364 20.083296 " transform="matrix(2.843218,0,0,2.842653,0,0.000000000000022802)"/>
<path style="fill-rule:evenodd;fill:rgb(100%,100%,100%);fill-opacity:1;stroke-width:0.3528;stroke-linecap:butt;stroke-linejoin:miter;stroke:rgb(0%,0%,0%);stroke-opacity:1;stroke-miterlimit:4;" d="M 33.548856 23.870471 C 32.962208 23.870471 32.962208 24.745808 33.548856 24.745808 C 34.135505 24.745808 34.145122 23.870471 33.548856 23.870471 Z M 33.548856 23.870471 " transform="matrix(2.843218,0,0,2.842653,0,0.000000000000022802)"/>
<path style="fill-rule:evenodd;fill:rgb(100%,100%,100%);fill-opacity:1;stroke-width:0.3528;stroke-linecap:butt;stroke-linejoin:miter;stroke:rgb(0%,0%,0%);stroke-opacity:1;stroke-miterlimit:4;" d="M 28.148121 24.609767 C 27.561473 24.609767 27.561473 25.485105 28.148121 25.485105 C 28.734769 25.485105 28.744387 24.609767 28.148121 24.609767 Z M 28.148121 24.609767 " transform="matrix(2.843218,0,0,2.842653,0,0.000000000000022802)"/>
<path style="fill-rule:evenodd;fill:rgb(100%,100%,100%);fill-opacity:1;stroke-width:0.3528;stroke-linecap:butt;stroke-linejoin:miter;stroke:rgb(0%,0%,0%);stroke-opacity:1;stroke-miterlimit:4;" d="M 38.971574 23.870471 C 39.559596 23.870471 39.559596 24.745808 38.971574 24.745808 C 38.384926 24.745808 38.376682 23.870471 38.971574 23.870471 Z M 38.971574 23.870471 " transform="matrix(2.843218,0,0,2.842653,0,0.000000000000022802)"/>
<path style="fill-rule:evenodd;fill:rgb(100%,100%,100%);fill-opacity:1;stroke-width:0.3528;stroke-linecap:butt;stroke-linejoin:miter;stroke:rgb(0%,0%,0%);stroke-opacity:1;stroke-miterlimit:4;" d="M 44.372309 24.609767 C 44.960331 24.609767 44.960331 25.485105 44.372309 25.485105 C 43.785661 25.485105 43.777418 24.609767 44.372309 24.609767 Z M 44.372309 24.609767 " transform="matrix(2.843218,0,0,2.842653,0,0.000000000000022802)"/>
<path style="fill-rule:evenodd;fill:url(#linear1);stroke-width:0.3528;stroke-linecap:butt;stroke-linejoin:miter;stroke:rgb(0%,0%,0%);stroke-opacity:1;stroke-miterlimit:4;" d="M 36.23892 28.258152 C 41.331905 28.258152 45.460425 27.753837 45.460425 27.12997 C 45.460425 26.508851 41.331905 26.003161 36.23892 26.003161 C 31.145935 26.003161 27.017415 26.508851 27.017415 27.12997 C 27.017415 27.753837 31.145935 28.258152 36.23892 28.258152 Z M 36.23892 28.258152 " transform="matrix(2.843218,0,0,2.842653,0,0.000000000000022802)"/>
<path style="fill:none;stroke-width:0.3528;stroke-linecap:butt;stroke-linejoin:miter;stroke:rgb(0%,0%,0%);stroke-opacity:1;stroke-miterlimit:4;" d="M 20.708543 14.100219 C 20.260657 14.660875 19.856735 17.01343 20.999806 18.178715 " transform="matrix(2.843218,0,0,2.842653,0,0.000000000000022802)"/>
<path style="fill:none;stroke-width:0.3528;stroke-linecap:butt;stroke-linejoin:miter;stroke:rgb(0%,0%,0%);stroke-opacity:1;stroke-miterlimit:4;" d="M 20.999806 18.178715 L 20.439262 19.613334 " transform="matrix(2.843218,0,0,2.842653,0,0.000000000000022802)"/>
<path style="fill:none;stroke-width:0.3528;stroke-linecap:butt;stroke-linejoin:miter;stroke:rgb(0%,0%,0%);stroke-opacity:1;stroke-miterlimit:4;" d="M 51.811887 14.100219 C 52.261147 14.660875 52.663695 17.01343 51.521998 18.178715 " transform="matrix(2.843218,0,0,2.842653,0,0.000000000000022802)"/>
<path style="fill:none;stroke-width:0.3528;stroke-linecap:butt;stroke-linejoin:miter;stroke:rgb(0%,0%,0%);stroke-opacity:1;stroke-miterlimit:4;" d="M 51.521998 18.178715 L 52.081168 19.613334 " transform="matrix(2.843218,0,0,2.842653,0,0.000000000000022802)"/>
<path style="fill-rule:evenodd;fill:url(#radial1);stroke-width:0.3528;stroke-linecap:round;stroke-linejoin:round;stroke:rgb(12.156863%,10.196079%,9.019608%);stroke-opacity:1;stroke-miterlimit:4;" d="M 15.431457 30.344122 C 15.169046 29.49077 16.17198 28.457405 17.174915 28.686889 C 33.014416 49.311602 48.85529 69.934941 64.694791 90.558281 C 64.951707 91.617755 63.705595 92.798156 62.577637 92.112452 C 46.86316 71.523466 31.147308 50.933107 15.431457 30.344122 Z M 15.431457 30.344122 " transform="matrix(2.843218,0,0,2.842653,0,0.000000000000022802)"/>
<path style="fill-rule:evenodd;fill:url(#radial2);stroke-width:0.3528;stroke-linecap:round;stroke-linejoin:round;stroke:rgb(12.156863%,10.196079%,9.019608%);stroke-opacity:1;stroke-miterlimit:4;" d="M 13.534124 31.880428 C 13.271713 31.027077 14.274648 29.993712 15.277582 30.223196 C 31.117083 50.847909 46.957957 71.471248 62.797458 92.094588 C 63.054374 93.154062 61.808262 94.334462 60.680304 93.648758 C 44.964453 73.058399 29.249976 52.469414 13.534124 31.880428 Z M 13.534124 31.880428 " transform="matrix(2.843218,0,0,2.842653,0,0.000000000000022802)"/>
<path style="fill-rule:evenodd;fill:url(#radial3);stroke-width:0.3528;stroke-linecap:round;stroke-linejoin:round;stroke:rgb(12.156863%,10.196079%,9.019608%);stroke-opacity:1;stroke-miterlimit:4;" d="M 11.635418 33.416735 C 11.37438 32.563384 12.377315 31.530019 13.38025 31.759503 C 29.21975 52.382842 45.060625 73.007555 60.900125 93.630894 C 61.157041 94.690369 59.909555 95.870769 58.782971 95.185065 C 43.06712 74.594706 27.351269 54.005721 11.635418 33.416735 Z M 11.635418 33.416735 " transform="matrix(2.843218,0,0,2.842653,0,0.000000000000022802)"/>
<path style="fill-rule:evenodd;fill:url(#radial4);stroke-width:0.3528;stroke-linecap:round;stroke-linejoin:round;stroke:rgb(12.156863%,10.196079%,9.019608%);stroke-opacity:1;stroke-miterlimit:4;" d="M 9.738085 34.953042 C 9.477047 34.099691 10.479982 33.066325 11.482917 33.295809 C 27.322417 53.919149 43.161918 74.543862 59.002792 95.167201 C 59.259709 96.226676 58.012223 97.407076 56.885638 96.721372 C 41.169787 76.131013 25.453936 55.542027 9.738085 34.953042 Z M 9.738085 34.953042 " transform="matrix(2.843218,0,0,2.842653,0,0.000000000000022802)"/>
<path style="fill-rule:evenodd;fill:url(#linear2);stroke-width:0.3528;stroke-linecap:round;stroke-linejoin:round;stroke:rgb(12.156863%,10.196079%,9.019608%);stroke-opacity:1;stroke-miterlimit:4;" d="M 7.840752 36.489349 C 7.579714 35.635998 8.582649 34.601258 9.585584 34.832116 C 25.425084 55.455456 41.264585 76.080169 57.10546 96.703508 C 57.362376 97.762983 56.11489 98.943383 54.988305 98.257679 C 39.272454 77.66732 23.556603 57.078334 7.840752 36.489349 Z M 7.840752 36.489349 " transform="matrix(2.843218,0,0,2.842653,0,0.000000000000022802)"/>
<path style="fill-rule:evenodd;fill:url(#radial5);stroke-width:0.3528;stroke-linecap:round;stroke-linejoin:round;stroke:rgb(12.156863%,10.196079%,9.019608%);stroke-opacity:1;stroke-miterlimit:4;" d="M 20.687935 53.320017 C 18.52819 50.489254 16.367072 47.658492 14.205953 44.82773 C 12.810088 44.870329 12.484478 45.872089 13.043648 47.14868 L 46.613113 90.236728 C 46.69692 91.183522 46.742258 91.700205 46.742258 91.700205 C 47.738323 93.064742 48.592879 92.172914 49.4282 90.95816 Z M 20.687935 53.320017 " transform="matrix(2.843218,0,0,2.842653,0,0.000000000000022802)"/>
<path style="fill-rule:evenodd;fill:url(#radial6);stroke-width:0.3528;stroke-linecap:round;stroke-linejoin:round;stroke:rgb(12.156863%,10.196079%,9.019608%);stroke-opacity:1;stroke-miterlimit:4;" d="M 19.951533 58.42913 C 17.11996 57.814882 16.46187 54.958011 17.370007 52.700272 C 16.34509 51.386578 15.321547 50.071511 14.298004 48.757817 C 12.289386 49.503984 10.129642 48.592919 9.6268 44.58313 C 4.98857 49.075247 8.758506 62.377081 19.951533 58.42913 Z M 19.951533 58.42913 " transform="matrix(2.843218,0,0,2.842653,0,0.000000000000022802)"/>
<path style="fill:none;stroke-width:0.3528;stroke-linecap:round;stroke-linejoin:round;stroke:rgb(12.156863%,10.196079%,9.019608%);stroke-opacity:1;stroke-miterlimit:4;" d="M 9.966149 94.723349 L 45.562092 53.586603 " transform="matrix(2.843218,0,0,2.842653,0,0.000000000000022802)"/>
<path style="fill-rule:evenodd;fill:url(#radial7);stroke-width:0.3528;stroke-linecap:round;stroke-linejoin:round;stroke:rgb(12.156863%,10.196079%,9.019608%);stroke-opacity:1;stroke-miterlimit:4;" d="M 36.086419 53.310397 C 28.626233 50.485132 21.166046 47.658492 13.704486 44.831852 C 12.424027 45.594509 12.649344 46.779032 13.295069 47.481226 C 20.806089 50.251525 28.315735 53.02045 35.826755 55.789376 C 39.525249 56.708686 38.468733 54.257191 36.086419 53.310397 Z M 36.086419 53.310397 " transform="matrix(2.843218,0,0,2.842653,0,0.000000000000022802)"/>
<path style="fill-rule:evenodd;fill:url(#radial8);stroke-width:0.3528;stroke-linecap:round;stroke-linejoin:round;stroke:rgb(12.156863%,10.196079%,9.019608%);stroke-opacity:1;stroke-miterlimit:4;" d="M 11.888212 41.625946 C 11.121585 41.636939 10.416783 41.160107 10.554172 39.847787 C 13.72372 37.315217 16.894643 34.784021 20.064192 32.252825 C 21.065753 32.167627 21.75132 33.365891 21.398232 34.030983 C 18.263031 36.607526 15.02204 39.050776 11.888212 41.625946 Z M 11.888212 41.625946 " transform="matrix(2.843218,0,0,2.842653,0,0.000000000000022802)"/>
<path style="fill-rule:evenodd;fill:url(#radial9);stroke-width:0.3528;stroke-linecap:round;stroke-linejoin:round;stroke:rgb(12.156863%,10.196079%,9.019608%);stroke-opacity:1;stroke-miterlimit:4;" d="M 12.940607 43.28043 C 12.175354 43.292797 11.750824 42.938265 11.888212 41.625946 C 15.057761 39.094749 18.22731 36.563553 21.398232 34.030983 C 22.39842 33.945785 22.857297 34.822497 22.502835 35.488963 C 19.369007 38.064132 16.074435 40.705261 12.940607 43.28043 Z M 12.940607 43.28043 " transform="matrix(2.843218,0,0,2.842653,0,0.000000000000022802)"/>
<path style="fill-rule:evenodd;fill:url(#radial10);stroke-width:0.3528;stroke-linecap:round;stroke-linejoin:round;stroke:rgb(12.156863%,10.196079%,9.019608%);stroke-opacity:1;stroke-miterlimit:4;" d="M 14.15512 44.870329 C 13.388493 44.882696 12.803219 44.592749 12.940607 43.28043 C 16.11153 40.749234 19.333286 38.020159 22.502835 35.488963 C 23.503022 35.402391 23.911065 36.478356 23.556603 37.144822 C 20.422775 39.719991 17.288948 42.29516 14.15512 44.870329 Z M 14.15512 44.870329 " transform="matrix(2.843218,0,0,2.842653,0,0.000000000000022802)"/>
<path style="fill-rule:evenodd;fill:url(#radial11);stroke-width:0.3528;stroke-linecap:round;stroke-linejoin:round;stroke:rgb(12.156863%,10.196079%,9.019608%);stroke-opacity:1;stroke-miterlimit:4;" d="M 49.4282 90.95816 C 48.649208 90.970528 47.932041 90.484076 48.070803 89.148396 C 51.296681 86.571853 54.522559 83.996684 57.749811 81.420141 C 58.767858 81.332195 59.465791 82.551071 59.105834 83.229905 C 55.917051 85.850421 52.616983 88.337644 49.4282 90.95816 Z M 49.4282 90.95816 " transform="matrix(2.843218,0,0,2.842653,0,0.000000000000022802)"/>
<path style="fill-rule:evenodd;fill:url(#radial12);stroke-width:0.3528;stroke-linecap:round;stroke-linejoin:round;stroke:rgb(12.156863%,10.196079%,9.019608%);stroke-opacity:1;stroke-miterlimit:4;" d="M 50.499829 92.642876 C 49.720837 92.655243 49.288064 92.29384 49.4282 90.95816 C 52.654078 88.381617 55.879956 85.806448 59.105834 83.229905 C 60.123881 83.141959 60.591002 84.03516 60.231044 84.712619 C 57.042261 87.33451 53.689986 90.02236 50.499829 92.642876 Z M 50.499829 92.642876 " transform="matrix(2.843218,0,0,2.842653,0,0.000000000000022802)"/>
<path style="fill-rule:evenodd;fill:url(#radial13);stroke-width:0.3528;stroke-linecap:round;stroke-linejoin:round;stroke:rgb(12.156863%,10.196079%,9.019608%);stroke-opacity:1;stroke-miterlimit:4;" d="M 51.73495 94.260258 C 50.955958 94.272625 50.361066 93.978556 50.499829 92.642876 C 53.725707 90.066333 57.005166 87.289163 60.231044 84.712619 C 61.249092 84.624673 61.664004 85.719876 61.302673 86.397335 C 58.11389 89.019226 54.923733 91.639742 51.73495 94.260258 Z M 51.73495 94.260258 " transform="matrix(2.843218,0,0,2.842653,0,0.000000000000022802)"/>
<path style="fill-rule:evenodd;fill:url(#radial14);stroke-width:0.3528;stroke-linecap:round;stroke-linejoin:round;stroke:rgb(12.156863%,10.196079%,9.019608%);stroke-opacity:1;stroke-miterlimit:4;" d="M 29.031528 68.000129 C 28.135756 68.013871 27.3128 67.455963 27.473544 65.921031 C 31.178908 62.962472 34.884271 60.003913 38.589634 57.04398 C 39.760183 56.943667 40.562531 58.343932 40.147618 59.123079 C 36.484845 62.133856 32.694301 64.989353 29.031528 68.000129 Z M 29.031528 68.000129 " transform="matrix(2.843218,0,0,2.842653,0,0.000000000000022802)"/>
<path style="fill-rule:evenodd;fill:url(#radial15);stroke-width:0.3528;stroke-linecap:round;stroke-linejoin:round;stroke:rgb(12.156863%,10.196079%,9.019608%);stroke-opacity:1;stroke-miterlimit:4;" d="M 27.38699 65.852323 C 26.491218 65.866064 25.668262 65.306783 25.827632 63.773224 C 29.534369 60.814665 33.239733 57.854733 36.945096 54.896174 C 38.114271 54.79586 38.916619 56.196126 38.50308 56.975273 C 34.840307 59.986049 31.049763 62.841546 27.38699 65.852323 Z M 27.38699 65.852323 " transform="matrix(2.843218,0,0,2.842653,0,0.000000000000022802)"/>
<path style="fill-rule:evenodd;fill:url(#radial16);stroke-width:0.3528;stroke-linecap:round;stroke-linejoin:round;stroke:rgb(12.156863%,10.196079%,9.019608%);stroke-opacity:1;stroke-miterlimit:4;" d="M 30.262528 69.934941 C 29.36813 69.950057 28.870784 69.535062 29.031528 68.000129 C 32.736891 65.041571 36.442255 62.083012 40.147618 59.123079 C 41.318167 59.022766 41.853981 60.047886 41.440442 60.827033 C 37.776295 63.83781 33.926674 66.925539 30.262528 69.934941 Z M 30.262528 69.934941 " transform="matrix(2.843218,0,0,2.842653,0,0.000000000000022802)"/>
<path style="fill-rule:evenodd;fill:url(#radial17);stroke-width:0.3528;stroke-linecap:round;stroke-linejoin:round;stroke:rgb(12.156863%,10.196079%,9.019608%);stroke-opacity:1;stroke-miterlimit:4;" d="M 31.681749 71.794175 C 30.785977 71.807917 30.103157 71.469874 30.262528 69.934941 C 33.967891 66.976383 37.735079 63.785592 41.440442 60.827033 C 42.609617 60.726719 43.086354 61.982698 42.671442 62.761845 C 39.008669 65.772622 35.344522 68.783398 31.681749 71.794175 Z M 31.681749 71.794175 " transform="matrix(2.843218,0,0,2.842653,0,0.000000000000022802)"/>
<path style="fill-rule:evenodd;fill:url(#radial18);stroke-width:0.3528;stroke-linecap:round;stroke-linejoin:round;stroke:rgb(12.156863%,10.196079%,9.019608%);stroke-opacity:1;stroke-miterlimit:4;" d="M 31.441319 72.390559 L 31.681749 71.794175 L 33.71647 70.120453 C 41.017286 72.903119 48.397787 76.062305 55.698603 78.844972 C 59.015157 79.835738 58.178462 80.947431 57.704473 81.455869 Z M 31.441319 72.390559 " transform="matrix(2.843218,0,0,2.842653,0,0.000000000000022802)"/>
<path style="fill:none;stroke-width:0.3528;stroke-linecap:round;stroke-linejoin:round;stroke:rgb(12.156863%,10.196079%,9.019608%);stroke-opacity:1;stroke-miterlimit:4;" d="M 30.454871 71.288486 L 11.184784 93.314838 " transform="matrix(2.843218,0,0,2.842653,0,0.000000000000022802)"/>
<path style="fill-rule:evenodd;fill:url(#radial19);stroke-width:0.3528;stroke-linecap:round;stroke-linejoin:round;stroke:rgb(12.156863%,10.196079%,9.019608%);stroke-opacity:1;stroke-miterlimit:4;" d="M 47.312419 53.884795 L 44.752875 51.787832 L 8.549676 93.732582 L 6.993066 97.91414 L 11.595575 95.369202 Z M 47.312419 53.884795 " transform="matrix(2.843218,0,0,2.842653,0,0.000000000000022802)"/>
<path style="fill:none;stroke-width:0.3528;stroke-linecap:round;stroke-linejoin:round;stroke:rgb(12.156863%,10.196079%,9.019608%);stroke-opacity:1;stroke-miterlimit:4;" d="M 45.562092 53.586603 L 10.769871 93.794419 " transform="matrix(2.843218,0,0,2.842653,0,0.000000000000022802)"/>
<path style="fill-rule:evenodd;fill:url(#radial20);stroke-width:0.3528;stroke-linecap:round;stroke-linejoin:round;stroke:rgb(12.156863%,10.196079%,9.019608%);stroke-opacity:1;stroke-miterlimit:4;" d="M 55.680743 53.565991 C 50.226426 51.239544 47.367375 48.017147 44.314606 43.801235 C 44.759744 43.229586 45.206256 42.657937 45.651394 42.086288 C 51.127693 43.983998 54.234043 47.897595 57.084851 52.003575 C 56.616357 52.52438 56.149237 53.045185 55.680743 53.565991 Z M 55.680743 53.565991 " transform="matrix(2.843218,0,0,2.842653,0,0.000000000000022802)"/>
<path style="fill-rule:evenodd;fill:url(#radial21);stroke-width:0.3528;stroke-linecap:round;stroke-linejoin:round;stroke:rgb(12.156863%,10.196079%,9.019608%);stroke-opacity:1;stroke-miterlimit:4;" d="M 64.253774 33.367266 C 63.808636 33.009985 63.362124 32.654078 62.915612 32.296798 C 55.945902 35.582406 53.202257 40.628308 51.034269 44.745281 C 51.751436 45.459842 52.469977 46.174403 53.187144 46.888965 C 57.35688 43.694051 61.974502 38.898245 64.253774 33.367266 Z M 64.253774 33.367266 " transform="matrix(2.843218,0,0,2.842653,0,0.000000000000022802)"/>
<path style="fill-rule:evenodd;fill:url(#radial22);stroke-width:0.3528;stroke-linecap:round;stroke-linejoin:round;stroke:rgb(12.156863%,10.196079%,9.019608%);stroke-opacity:1;stroke-miterlimit:4;" d="M 67.254336 31.145255 C 67.254336 29.863167 66.21568 28.82293 64.932473 28.82293 C 63.65064 28.82293 62.61061 29.863167 62.61061 31.145255 C 62.61061 32.427343 63.65064 33.467579 64.932473 33.467579 C 66.21568 33.467579 67.254336 32.427343 67.254336 31.145255 Z M 67.254336 31.145255 " transform="matrix(2.843218,0,0,2.842653,0,0.000000000000022802)"/>
<path style="fill:none;stroke-width:0.3528;stroke-linecap:round;stroke-linejoin:round;stroke:rgb(12.156863%,10.196079%,9.019608%);stroke-opacity:1;stroke-miterlimit:4;" d="M 57.723707 35.62363 L 63.29343 35.407888 " transform="matrix(2.843218,0,0,2.842653,0,0.000000000000022802)"/>
<path style="fill:none;stroke-width:0.3528;stroke-linecap:round;stroke-linejoin:round;stroke:rgb(12.156863%,10.196079%,9.019608%);stroke-opacity:1;stroke-miterlimit:4;" d="M 55.168284 38.215289 L 61.613171 38.171316 " transform="matrix(2.843218,0,0,2.842653,0,0.000000000000022802)"/>
<path style="fill:none;stroke-width:0.3528;stroke-linecap:round;stroke-linejoin:round;stroke:rgb(12.156863%,10.196079%,9.019608%);stroke-opacity:1;stroke-miterlimit:4;" d="M 53.283316 40.793207 L 59.583945 40.822064 " transform="matrix(2.843218,0,0,2.842653,0,0.000000000000022802)"/>
<path style="fill:none;stroke-width:0.3528;stroke-linecap:round;stroke-linejoin:round;stroke:rgb(12.156863%,10.196079%,9.019608%);stroke-opacity:1;stroke-miterlimit:4;" d="M 51.751436 43.399981 L 56.985932 43.604731 " transform="matrix(2.843218,0,0,2.842653,0,0.000000000000022802)"/>
<path style="fill:none;stroke-width:0.3528;stroke-linecap:round;stroke-linejoin:round;stroke:rgb(12.156863%,10.196079%,9.019608%);stroke-opacity:1;stroke-miterlimit:4;" d="M 51.906685 45.615122 L 54.523933 45.822619 " transform="matrix(2.843218,0,0,2.842653,0,0.000000000000022802)"/>
<path style="fill-rule:evenodd;fill:url(#radial23);stroke-width:0.3528;stroke-linecap:round;stroke-linejoin:round;stroke:rgb(12.156863%,10.196079%,9.019608%);stroke-opacity:1;stroke-miterlimit:4;" d="M 58.46423 52.172596 C 59.15392 52.681034 59.167658 53.829829 58.495829 54.73952 C 57.825374 55.650586 56.722146 55.976261 56.033831 55.467823 C 55.345515 54.959385 55.331776 53.81059 56.002231 52.900899 C 56.67406 51.991207 57.775915 51.664158 58.46423 52.172596 Z M 58.46423 52.172596 " transform="matrix(2.843218,0,0,2.842653,0,0.000000000000022802)"/>
<path style="fill-rule:evenodd;fill:url(#radial24);stroke-width:0.3528;stroke-linecap:round;stroke-linejoin:round;stroke:rgb(12.156863%,10.196079%,9.019608%);stroke-opacity:1;stroke-miterlimit:4;" d="M 45.177405 40.104754 C 45.86572 40.611818 45.880833 41.761987 45.209004 42.671679 C 44.538549 43.58137 43.435321 43.907045 42.747005 43.399981 C 42.05869 42.891544 42.044951 41.741375 42.715406 40.831683 C 43.387235 39.921992 44.489089 39.596317 45.177405 40.104754 Z M 45.177405 40.104754 " transform="matrix(2.843218,0,0,2.842653,0,0.000000000000022802)"/>
<path style="fill-rule:evenodd;fill:url(#radial25);stroke-width:0.3528;stroke-linecap:round;stroke-linejoin:round;stroke:rgb(12.156863%,10.196079%,9.019608%);stroke-opacity:1;stroke-miterlimit:4;" d="M 47.312419 53.884795 L 50.465482 50.526357 L 47.838617 48.146318 L 44.752875 51.787832 L 45.562092 53.586603 Z M 47.312419 53.884795 " transform="matrix(2.843218,0,0,2.842653,0,0.000000000000022802)"/>
</g>
</svg>
